<?xml version="1.0" encoding="UTF-8"?>
<svg version="1.1" xmlns="http://www.w3.org/2000/svg" width="263" height="270">
<path d="M0 0 C86.79 0 173.58 0 263 0 C263 89.1 263 178.2 263 270 C176.21 270 89.42 270 0 270 C0 180.9 0 91.8 0 0 Z " fill="#6171F8" transform="translate(0,0)"/>
<path d="M0 0 C86.79 0 173.58 0 263 0 C263 89.1 263 178.2 263 270 C176.21 270 89.42 270 0 270 C0 180.9 0 91.8 0 0 Z M73.0625 8.6875 C71.99652588 9.3585376 70.93055176 10.0295752 69.83227539 10.72094727 C67.6330182 12.10728309 65.44052552 13.50440729 63.25488281 14.91210938 C59.1216544 17.56342721 54.94186497 20.1346888 50.75756836 22.7043457 C46.82789889 25.11943734 42.91314863 27.55826015 39 30 C39.33 30.99 39.66 31.98 40 33 C39.33613281 33.25265625 38.67226563 33.5053125 37.98828125 33.765625 C21.43493852 40.04358397 21.43493852 40.04358397 9.5625 51.9375 C8.38415469 58.35293556 7.85750268 64.46113192 7.88647461 70.96459961 C7.88632858 71.83368958 7.88618256 72.70277954 7.8860321 73.59820557 C7.88672464 76.44961101 7.894486 79.30094982 7.90234375 82.15234375 C7.90421027 84.13774073 7.90563307 86.12313816 7.90663147 88.10853577 C7.91043819 93.31826055 7.92025265 98.52795719 7.93133545 103.7376709 C7.94158931 109.0601361 7.94613759 114.38260588 7.95117188 119.70507812 C7.96187665 130.13673108 7.97893081 140.56836319 8 151 C9.42892578 151.65355469 9.42892578 151.65355469 10.88671875 152.3203125 C12.15401194 152.92110335 13.42091878 153.52270963 14.6875 154.125 C15.31333984 154.40859375 15.93917969 154.6921875 16.58398438 154.984375 C20.05362331 156.65561469 21.80901935 157.73909748 24.14453125 160.9296875 C27.9286851 165.44901108 27.9286851 165.44901108 40 169 C40.33 184.84 40.66 200.68 41 217 C42.32 217 43.64 217 45 217 C45 217.66 45 218.32 45 219 C52.37905247 227.80483549 64.55553113 232.96757871 74.4140625 238.46484375 C75.47560547 239.05773193 75.47560547 239.05773193 76.55859375 239.66259766 C77.88912621 240.40300502 79.22227552 241.13873913 80.55859375 241.86865234 C84.35653548 243.96851434 87.86245907 246.2826441 91.36572266 248.84204102 C97.25379423 253.01400449 103.95975399 256.15813738 110.63671875 258.84765625 C113 260 113 260 114.69995117 261.25146484 C119.38300454 264.6183813 122.55819209 265.58268383 128.30615234 264.93286133 C129.17449707 264.79001709 130.0428418 264.64717285 130.9375 264.5 C131.8548291 264.35908936 132.7721582 264.21817871 133.71728516 264.07299805 C142.97104852 262.33240541 149.55149495 257.84143452 157.02978516 252.37939453 C160.07490244 250.24743509 163.27502825 248.4771841 166.5625 246.75 C167.172146 246.42797607 167.78179199 246.10595215 168.40991211 245.77416992 C172.82846433 243.49338203 177.35333093 241.54473228 181.9375 239.625 C192.0576048 235.35372048 207.17617143 228.81061054 213 219 C214.78174002 213.128375 215.17317608 208.2097398 214.84375 202.1171875 C214.78927701 200.43887794 214.73726645 198.76048696 214.6875 197.08203125 C214.600829 194.46860518 214.49914653 191.85949048 214.35546875 189.24853516 C213.59111958 174.69041335 213.59111958 174.69041335 216.98046875 170.6237793 C219.60632021 169.02057232 222.0906256 167.98587309 225 167 C226.38436968 166.3221966 227.76046219 165.62704776 229.125 164.91015625 C229.7641333 164.6054541 230.4032666 164.30075195 231.06176758 163.98681641 C233.77865374 162.69117073 236.45300991 161.31599179 239.13037109 159.94091797 C240.78229709 159.10956216 242.46182563 158.33355279 244.14453125 157.56640625 C248.51069778 155.20752565 250.52415921 153.28257394 252.26953125 148.578125 C257.50491521 126.31422204 253.93802656 100.70272611 253.125 78.0625 C253.08597565 76.91806427 253.04695129 75.77362854 253.00674438 74.59451294 C252.8918424 71.30344016 252.76430553 68.01310326 252.6328125 64.72265625 C252.59936234 63.73003784 252.56591217 62.73741943 252.53144836 61.71472168 C252.3225526 56.85193866 252.09156454 52.48299813 250 48 C247.5935304 46.20498557 245.43308289 44.83656133 242.8125 43.4375 C241.69766235 42.81186157 241.69766235 42.81186157 240.56030273 42.17358398 C238.92668832 41.25867308 237.28850111 40.35189233 235.64648438 39.45214844 C231.9118156 37.40290399 228.20241488 35.30977583 224.49267578 33.21582031 C222.53737345 32.11256191 220.580006 31.01295564 218.62060547 29.91699219 C213.9299546 27.28158394 209.29412029 24.59592127 204.7421875 21.7265625 C203.5210022 20.95783813 203.5210022 20.95783813 202.27514648 20.17358398 C200.76159099 19.21138949 199.25530627 18.23762048 197.75805664 17.25024414 C193.47896082 14.52550981 191.14066042 13.91752951 186 14 C183.60780059 12.76595119 181.51971141 11.55869777 179.3125 10.0625 C171.8308404 5.14549556 165.99726477 3.93061082 157 5 C152.30097239 6.86100103 148.51261067 9.66994579 144.734375 12.9921875 C138.34597665 18.55411474 138.34597665 18.55411474 133.25 18.25 C122.09169159 16.11805818 112.60601337 10.85917668 103.1171875 4.890625 C92.38423357 -1.61908641 82.7029334 2.34140114 73.0625 8.6875 Z " fill="#FAFBFC" transform="translate(0,0)"/>
<path d="M0 0 C6.77009115 2.6988264 12.59209349 5.81928842 17.875 10.9375 C18.42285156 11.41703125 18.97070312 11.8965625 19.53515625 12.390625 C22.77309697 16.12888893 22.05160177 21.33961432 22.078125 26.02734375 C22.08382507 26.80888321 22.08952515 27.59042267 22.09539795 28.39564514 C22.10482544 30.0455694 22.11137297 31.69551231 22.11523438 33.34545898 C22.12495291 35.86280193 22.15600176 38.37933239 22.1875 40.89648438 C22.19402953 42.50259934 22.1992802 44.10872012 22.203125 45.71484375 C22.2154718 46.46394516 22.2278186 47.21304657 22.24053955 47.98484802 C22.22140541 52.49540022 21.74720265 55.40961236 18.875 58.9375 C16.76196289 60.49902344 16.76196289 60.49902344 14.34765625 61.796875 C13.03571289 62.51037109 13.03571289 62.51037109 11.69726562 63.23828125 C10.78654297 63.71652344 9.87582031 64.19476563 8.9375 64.6875 C8.03064453 65.18121094 7.12378906 65.67492187 6.18945312 66.18359375 C-2.34279852 70.76677528 -9.32909514 72.02252185 -19.125 70.9375 C-23.43751711 69.40209964 -27.19523954 67.26191151 -31.125 64.9375 C-31.96160156 64.55464844 -32.79820313 64.17179687 -33.66015625 63.77734375 C-40.17913724 60.74095695 -43.30138713 56.49402481 -46.125 49.9375 C-48.2380138 43.3534715 -48.4357365 36.795133 -48.125 29.9375 C-48.11855469 29.1125 -48.11210938 28.2875 -48.10546875 27.4375 C-47.81386591 20.52543265 -45.41602912 15.34875354 -41.125 9.9375 C-28.23088247 -1.599342 -16.37018775 -6.08953015 0 0 Z " fill="#F5F7FC" transform="translate(140.125,88.0625)"/>
<path d="M0 0 C12.57546285 1.18357297 23.36644475 8.81063248 33.70703125 15.53125 C38.60794539 18.67050675 43.32167137 20.71779676 49 22 C50.26263672 22.309375 50.26263672 22.309375 51.55078125 22.625 C62.87673154 24.58673429 71.31406916 18.37949262 80.67578125 12.82421875 C97.28115728 3 97.28115728 3 105 3 C105.30756866 8.84380447 105.0261402 12.79882154 102 18 C95.89279284 24.57769735 88.00463744 28.81623014 80.3125 33.25 C79.09002882 33.96274305 77.86802033 34.67628031 76.64648438 35.390625 C74.40683316 36.69930327 72.16428009 38.00237493 69.91918945 39.30175781 C68.0201027 40.40655395 66.13243343 41.53129567 64.25878906 42.67871094 C60.27000334 45.01196951 56.55609238 45.2268135 52 45 C43.49262173 42.40123335 35.78687352 37.80346489 28.21826172 33.22631836 C26.50609865 32.19118709 24.78625012 31.1688034 23.06640625 30.14648438 C3.34003878 18.34003878 3.34003878 18.34003878 0 15 C-0.07313567 12.46950598 -0.09247527 9.96695163 -0.0625 7.4375 C-0.05798828 6.72658203 -0.05347656 6.01566406 -0.04882812 5.28320312 C-0.03700864 3.52209987 -0.01907263 1.76103964 0 0 Z " fill="#EAEEFD" transform="translate(74,184)"/>
<path d="M0 0 C0.88042969 -0.01675781 1.76085937 -0.03351562 2.66796875 -0.05078125 C11.7504619 0.99850057 19.0858077 5.50157196 26.8125 10.125 C27.84117187 10.72892578 28.86984375 11.33285156 29.9296875 11.95507812 C32.90730988 13.71475446 35.86186035 15.50803123 38.8125 17.3125 C39.67488281 17.82087402 40.53726563 18.32924805 41.42578125 18.85302734 C42.21339844 19.33852051 43.00101563 19.82401367 43.8125 20.32421875 C44.493125 20.73502686 45.17375 21.14583496 45.875 21.5690918 C50.04789774 25.32396362 51.94071371 29.37279884 52.45019531 34.8605957 C52.53275938 36.56900858 52.5952142 38.27847739 52.640625 39.98828125 C52.6793573 40.91231247 52.7180896 41.83634369 52.75799561 42.78837585 C52.8767784 45.73354786 52.9696412 48.67890941 53.0625 51.625 C53.13901022 53.56061138 53.21712203 55.49616015 53.296875 57.43164062 C53.75342909 69.06158048 53.91022927 80.67457218 53.8125 92.3125 C45.1875 95.3125 45.1875 95.3125 41.8125 95.3125 C41.78496169 93.7917733 41.76586625 92.27089326 41.75 90.75 C41.73839844 89.90308594 41.72679687 89.05617188 41.71484375 88.18359375 C41.8125 85.3125 41.8125 85.3125 42.29296875 82.05078125 C44.25602996 67.92559644 42.84363567 54.75531607 38.43115234 41.24609375 C37.92079088 39.65096241 37.49028127 38.03051744 37.08203125 36.40625 C35.27709452 30.58258675 31.29720713 28.12870385 26.07788086 25.26342773 C19.71883345 22.03270592 13.0158769 19.58134726 6.27368164 17.27709961 C0.50082961 15.2398475 -4.8847088 12.80312879 -9.1875 8.3125 C-9.6875 4.9375 -9.6875 4.9375 -9.1875 2.3125 C-6.02582054 0.46265957 -3.64984139 0.01580018 0 0 Z " fill="#E9EDFD" transform="translate(164.1875,40.6875)"/>
<path d="M0 0 C1.63903941 0.69203886 3.231228 1.49343282 4.80859375 2.31640625 C4.80859375 4.29640625 4.80859375 6.27640625 4.80859375 8.31640625 C-2.08239657 11.86161027 -8.96445165 15.25524681 -16.10766602 18.26220703 C-27.42862881 23.07293523 -35.40863212 28.78665723 -43.25390625 38.31640625 C-43.73206787 38.88568848 -44.21022949 39.4549707 -44.70288086 40.04150391 C-45.1438208 40.60659668 -45.58476074 41.17168945 -46.0390625 41.75390625 C-46.43101807 42.24761719 -46.82297363 42.74132812 -47.22680664 43.25 C-50.02237074 49.23877614 -49.32715188 56.81003615 -49.2890625 63.28515625 C-49.28694008 64.66652771 -49.28694008 64.66652771 -49.28477478 66.07580566 C-49.27922032 68.98937359 -49.2666765 71.90286193 -49.25390625 74.81640625 C-49.24888536 76.8033843 -49.24432348 78.79036356 -49.24023438 80.77734375 C-49.22926585 85.62372813 -49.21203308 90.47005374 -49.19140625 95.31640625 C-52.16140625 94.32640625 -55.13140625 93.33640625 -58.19140625 92.31640625 C-58.40025574 83.81498476 -58.560003 75.3146403 -58.6577158 66.81128502 C-58.70462311 62.86236133 -58.7681967 58.91519642 -58.87036133 54.96728516 C-58.96840577 51.15457631 -59.02201249 47.34355455 -59.04530144 43.52968216 C-59.06188829 42.07742367 -59.09428392 40.62525422 -59.14297676 39.1737175 C-59.50771109 27.84687929 -59.50771109 27.84687929 -56.37193298 24.20089722 C-54.04643225 22.62147646 -51.75792934 21.45530586 -49.19140625 20.31640625 C-47.99558879 19.60723862 -46.80876266 18.88253283 -45.63452148 18.13818359 C-44.51762939 17.48285645 -43.4007373 16.8275293 -42.25 16.15234375 C-41.63802261 15.79298737 -41.02604523 15.43363098 -40.39552307 15.06338501 C-39.11837697 14.3143756 -37.840455 13.56668757 -36.56176758 12.8203125 C-34.62673151 11.69013607 -32.69507182 10.55434546 -30.76367188 9.41796875 C-9.60566784 -2.99642045 -9.60566784 -2.99642045 0 0 Z " fill="#ECF3FD" transform="translate(99.19140625,40.68359375)"/>
<path d="M0 0 C3.5407119 1.67004079 6.80562108 3.71673024 10.1328125 5.77270508 C18.78819288 11.03626536 27.34717772 14.1529674 37.30078125 16.02270508 C36.48828125 18.83520508 36.48828125 18.83520508 34.30078125 22.02270508 C29.39731458 24.10782408 24.61298425 25.02270508 19.30078125 25.02270508 C19.16542969 24.4684082 19.03007813 23.91411133 18.890625 23.34301758 C18.21168144 21.05818954 17.48638716 19.09328111 16.30078125 17.02270508 C13.19636999 15.38326903 13.19636999 15.38326903 9.30078125 15.02270508 C8.61371094 14.91571289 7.92664063 14.8087207 7.21875 14.69848633 C-12.21757085 12.14891784 -26.77869623 14.86143426 -43.16796875 25.68286133 C-43.77680908 26.08480713 -44.38564941 26.48675293 -45.01293945 26.90087891 C-46.47977546 27.87671667 -47.93973242 28.86287931 -49.3984375 29.85083008 C-53.11420307 31.74341016 -55.68654454 30.77083078 -59.69921875 30.02270508 C-60.02921875 29.03270508 -60.35921875 28.04270508 -60.69921875 27.02270508 C-59.29166667 26.16593424 -57.88411458 25.30916341 -56.4765625 24.45239258 C-55.55657471 23.89181152 -54.63658691 23.33123047 -53.6887207 22.75366211 C-51.63336859 21.50377916 -49.5758666 20.25742548 -47.51635742 19.0144043 C-42.11348619 15.74667427 -36.75741197 12.43182858 -31.47265625 8.97583008 C-30.47242432 8.33403809 -29.47219238 7.69224609 -28.44165039 7.03100586 C-26.53615129 5.80618959 -24.64372708 4.56070458 -22.76733398 3.29174805 C-15.53475849 -1.30365514 -8.29713578 -3.00410949 0 0 Z " fill="#6E7BEB" transform="translate(99.69921875,2.977294921875)"/>
<path d="M0 0 C0.87188043 3.25383853 1.15865946 6.43270772 1.29711914 9.7890625 C1.33705994 10.71714218 1.37700073 11.64522186 1.41815186 12.60142517 C1.47606903 14.09809471 1.47606903 14.09809471 1.53515625 15.625 C1.57835999 16.67212662 1.62156372 17.71925323 1.66607666 18.79811096 C1.8038903 22.19854485 1.93432449 25.59918975 2.0625 29 C2.10635834 30.15426483 2.15021667 31.30852966 2.19540405 32.49777222 C4.00463899 80.73326049 4.00463899 80.73326049 1.8125 95.625 C1.66131714 96.71083374 1.66131714 96.71083374 1.50708008 97.81860352 C0.88023616 101.22551074 0.33477776 102.7388411 -2.43359375 104.8984375 C-5.2497955 106.10721816 -8.08120455 107.06598545 -11 108 C-13.35343986 108.95845736 -15.67368195 109.97642006 -18 111 C-18 109.02 -18 107.04 -18 105 C-15.525 104.505 -15.525 104.505 -13 104 C-13.66 101.36 -14.32 98.72 -15 96 C-12.03 96 -9.06 96 -6 96 C-6 64.32 -6 32.64 -6 0 C-2 -1 -2 -1 0 0 Z " fill="#767FE7" transform="translate(251,49)"/>
<path d="M0 0 C2.03125 0.3046875 2.03125 0.3046875 4.5 0.875 C5.72203125 1.14957031 5.72203125 1.14957031 6.96875 1.4296875 C9 2 9 2 10 3 C10.09413687 5.05556661 10.11742998 7.11440181 10.11352539 9.17211914 C10.11367142 9.81600082 10.11381744 10.45988251 10.1139679 11.12327576 C10.11326885 13.26060303 10.10547691 15.39784413 10.09765625 17.53515625 C10.09579204 19.01346285 10.09436815 20.49177007 10.09336853 21.97007751 C10.08954359 25.86798802 10.07971352 29.76586149 10.06866455 33.66375732 C10.05844992 37.63846333 10.0538708 41.61317529 10.04882812 45.58789062 C10.03809122 53.391944 10.02101509 61.19596682 10 69 C9.01 69 8.02 69 7 69 C6.2167397 61.49740003 5.86907681 54.02066998 5.640625 46.484375 C5.54295333 43.56800064 5.44382969 40.65167759 5.34472656 37.73535156 C5.28135528 35.7381763 5.22541617 33.74075194 5.17675781 31.74316406 C5.10318977 28.82241723 4.99953077 25.90399112 4.890625 22.984375 C4.87582092 22.10086365 4.86101685 21.21735229 4.84576416 20.30706787 C4.60378 14.71788915 3.44125395 11.27962579 0.06243896 6.78961182 C-1 5 -1 5 -1 1 C-0.67 0.67 -0.34 0.34 0 0 Z " fill="#6976E3" transform="translate(211,58)"/>
<path d="M0 0 C5.40044864 0.56108557 9.88058376 1.90747778 14.875 4 C15.55046875 4.27328125 16.2259375 4.5465625 16.921875 4.828125 C21.84470663 6.84470663 21.84470663 6.84470663 23 8 C23.09353163 9.68801985 23.11744791 11.37995207 23.11352539 13.07055664 C23.11344986 14.15160172 23.11337433 15.23264679 23.11329651 16.34645081 C23.10813522 17.5224736 23.10297394 18.6984964 23.09765625 19.91015625 C23.0962413 21.10732773 23.09482635 22.30449921 23.09336853 23.53794861 C23.08774979 27.37949066 23.07519411 31.22097543 23.0625 35.0625 C23.05748741 37.65950437 23.05292409 40.25650965 23.04882812 42.85351562 C23.03777427 49.23569679 23.02101792 55.6178443 23 62 C22.01 62 21.02 62 20 62 C19.67 46.16 19.34 30.32 19 14 C14.71 12.35 10.42 10.7 6 9 C2.1875 5.3125 2.1875 5.3125 0 2 C0 1.34 0 0.68 0 0 Z " fill="#6F7BDE" transform="translate(21,155)"/>
<path d="M0 0 C2.48575472 0.35078777 4.91426574 0.76672116 7.375 1.25 C8.45297852 1.45653198 8.45297852 1.45653198 9.55273438 1.66723633 C15.45100298 2.82676438 21.23924882 4.27909763 27 6 C27 8.97 27 11.94 27 15 C29.97 15 32.94 15 36 15 C36 16.98 36 18.96 36 21 C35.236875 20.835 34.47375 20.67 33.6875 20.5 C30.96403764 19.90854604 30.96403764 19.90854604 28 20 C20.74058651 17.03844823 13.97996766 12.90347567 7.3125 8.8125 C6.60520752 8.38469238 5.89791504 7.95688477 5.16918945 7.51611328 C0.11940707 4.3582212 0.11940707 4.3582212 -1 1 C-0.67 0.67 -0.34 0.34 0 0 Z " fill="#6F78EB" transform="translate(50,220)"/>
<path d="M0 0 C3.13975383 1.43960583 6.17475315 3.00843574 9.21484375 4.6484375 C10.30667969 5.23367187 11.39851562 5.81890625 12.5234375 6.421875 C22.17592127 11.91440478 22.17592127 11.91440478 24.77734375 18.2734375 C23.00860395 18.40857042 21.2369132 18.50549336 19.46484375 18.5859375 C18.47871094 18.64394531 17.49257812 18.70195313 16.4765625 18.76171875 C15.58582031 18.60058594 14.69507813 18.43945312 13.77734375 18.2734375 C13.32359375 17.4896875 12.86984375 16.7059375 12.40234375 15.8984375 C10.43046572 12.71309607 8.74123799 12.28911163 5.18164062 11.41210938 C4.49134766 11.26322266 3.80105469 11.11433594 3.08984375 10.9609375 C2.38794922 10.79271484 1.68605469 10.62449219 0.96289062 10.45117188 C-0.76144341 10.04061615 -2.49158136 9.65457207 -4.22265625 9.2734375 C-4.22265625 6.3034375 -4.22265625 3.3334375 -4.22265625 0.2734375 C-2.22265625 -0.7265625 -2.22265625 -0.7265625 0 0 Z " fill="#747DEA" transform="translate(219.22265625,30.7265625)"/>
<path d="M0 0 C4.52615993 3.67832017 8.39424999 7.41086363 12 12 C6.29425954 16.27930535 1.27001966 18 -6 18 C-5.77023606 15.93514776 -5.51529223 13.87308882 -5.25 11.8125 C-5.11078125 10.66394531 -4.9715625 9.51539063 -4.828125 8.33203125 C-3.91216662 4.64659492 -2.55669431 2.7593591 0 0 Z " fill="#5A6BF2" transform="translate(113,238)"/>
<path d="M0 0 C0.41507812 0.38414062 0.83015625 0.76828125 1.2578125 1.1640625 C4.68114612 3.8425704 6.93567273 5.03580683 11.3671875 4.88671875 C13.79538548 4.50290681 16.21781786 4.08072176 18.6328125 3.62109375 C22.53744799 2.90086516 26.04868255 2.8419473 30 3 C29.02133662 4.14626322 28.04205413 5.29199788 27.0625 6.4375 C26.51722656 7.07558594 25.97195312 7.71367187 25.41015625 8.37109375 C24.63204305 9.26991149 23.84063472 10.15936528 23 11 C21.5112814 11.08669432 20.018555 11.10703494 18.52734375 11.09765625 C17.62822266 11.09443359 16.72910156 11.09121094 15.80273438 11.08789062 C14.85720703 11.07951172 13.91167969 11.07113281 12.9375 11.0625 C11.98810547 11.05798828 11.03871094 11.05347656 10.06054688 11.04882812 C7.70696935 11.0370011 5.35351523 11.02052025 3 11 C2.49632243 9.54293274 1.99717444 8.08429904 1.5 6.625 C1.2215625 5.81289063 0.943125 5.00078125 0.65625 4.1640625 C0 2 0 2 0 0 Z " fill="#E9EDFD" transform="translate(113,259)"/>
<path d="M0 0 C0.30679688 0.63421875 0.61359375 1.2684375 0.9296875 1.921875 C2.42426077 4.8237472 4.10584344 5.16620021 7.125 6.25 C8.03507812 6.58515625 8.94515625 6.9203125 9.8828125 7.265625 C10.58148438 7.50796875 11.28015625 7.7503125 12 8 C7.42495473 10.48032067 3.22145459 11.70247031 -2 11 C-6.04189192 8.75223917 -9.51453645 6.02824495 -13 3 C-12.67 2.34 -12.34 1.68 -12 1 C-3.69338835 -1.58730527 -3.69338835 -1.58730527 0 0 Z " fill="#727CE5" transform="translate(123,254)"/>
<path d="M0 0 C0.66 0 1.32 0 2 0 C2.79592378 9.56024447 3.18239644 19.0303138 3.1875 28.625 C3.19974609 29.84445313 3.21199219 31.06390625 3.22460938 32.3203125 C3.23704669 40.08119432 2.54634729 47.39354834 1 55 C0.67 55 0.34 55 0 55 C0 36.85 0 18.7 0 0 Z " fill="#6272F9" transform="translate(251,91)"/>
<path d="M0 0 C4.31392226 0.4793247 6.16569547 1.7457985 9 5 C7.35 5 5.7 5 4 5 C3.71125 4.360625 3.4225 3.72125 3.125 3.0625 C2.17176549 0.84793921 2.17176549 0.84793921 0 0 Z " fill="#6A79F7" transform="translate(240,44)"/>
</svg>
